<?xml version="1.0" encoding="UTF-8" standalone="no"?>
<!-- Created with Inkscape (http://www.inkscape.org/) -->

<svg
   width="69.803642mm"
   height="80.602303mm"
   viewBox="0 0 69.803642 80.602303"
   version="1.1"
   id="svg5"
   inkscape:version="1.1.1 (3bf5ae0d25, 2021-09-20)"
   sodipodi:docname="logo-golang.svg"
   xmlns:inkscape="http://www.inkscape.org/namespaces/inkscape"
   xmlns:sodipodi="http://sodipodi.sourceforge.net/DTD/sodipodi-0.dtd"
   xmlns="http://www.w3.org/2000/svg"
   xmlns:svg="http://www.w3.org/2000/svg">
  <sodipodi:namedview
     id="namedview7"
     pagecolor="#ffffff"
     bordercolor="#666666"
     borderopacity="1.0"
     inkscape:pageshadow="2"
     inkscape:pageopacity="0.0"
     inkscape:pagecheckerboard="0"
     inkscape:document-units="mm"
     showgrid="false"
     inkscape:snap-object-midpoints="false"
     inkscape:zoom="1.5554293"
     inkscape:cx="0.96436399"
     inkscape:cy="148.1906"
     inkscape:window-width="1778"
     inkscape:window-height="1081"
     inkscape:window-x="559"
     inkscape:window-y="197"
     inkscape:window-maximized="0"
     inkscape:current-layer="layer1" />
  <defs
     id="defs2" />
  <g
     inkscape:label="Layer 1"
     inkscape:groupmode="layer"
     id="layer1"
     transform="translate(-61.376529,-86.935959)">
    <path
       sodipodi:type="star"
       style="fill:#00acd7;fill-opacity:1;fill-rule:evenodd"
       id="path55"
       inkscape:flatsided="true"
       sodipodi:sides="6"
       sodipodi:cx="363.88669"
       sodipodi:cy="480.89618"
       sodipodi:r1="152.31932"
       sodipodi:r2="131.9124"
       sodipodi:arg1="2.6179939"
       sodipodi:arg2="3.1415927"
       inkscape:rounded="0"
       inkscape:randomized="0"
       d="m 231.97429,557.05584 0,-152.31932 131.9124,-76.15966 131.9124,76.15966 0,152.31932 -131.91241,76.15966 z"
       transform="scale(0.26458333)"
       inkscape:transform-center-x="1.2129556e-06"
       inkscape:transform-center-y="-1.6029872e-06" />
    <g
       id="g222"
       transform="matrix(0.27788401,0,0,0.27788401,67.741366,116.58503)"
       style="fill:#ffffff">
	<g
   id="g191"
   style="fill:#ffffff">
		<g
   id="g189"
   style="fill:#ffffff">
			<g
   id="g187"
   style="fill:#ffffff">
				<path
   class="st0"
   d="M 15.5,23.2 C 15.1,23.2 15,23 15.2,22.7 L 17.3,20 c 0.2,-0.3 0.7,-0.5 1.1,-0.5 h 35.7 c 0.4,0 0.5,0.3 0.3,0.6 l -1.7,2.6 c -0.2,0.3 -0.7,0.6 -1,0.6 z"
   id="path185"
   style="fill:#ffffff" />

			</g>

		</g>

	</g>

	<g
   id="g199"
   style="fill:#ffffff">
		<g
   id="g197"
   style="fill:#ffffff">
			<g
   id="g195"
   style="fill:#ffffff">
				<path
   class="st0"
   d="M 0.4,32.4 C 0,32.4 -0.1,32.2 0.1,31.9 l 2.1,-2.7 c 0.2,-0.3 0.7,-0.5 1.1,-0.5 h 45.6 c 0.4,0 0.6,0.3 0.5,0.6 l -0.8,2.4 c -0.1,0.4 -0.5,0.6 -0.9,0.6 z"
   id="path193"
   style="fill:#ffffff" />

			</g>

		</g>

	</g>

	<g
   id="g207"
   style="fill:#ffffff">
		<g
   id="g205"
   style="fill:#ffffff">
			<g
   id="g203"
   style="fill:#ffffff">
				<path
   class="st0"
   d="m 24.6,41.6 c -0.4,0 -0.5,-0.3 -0.3,-0.6 l 1.4,-2.5 c 0.2,-0.3 0.6,-0.6 1,-0.6 h 20 c 0.4,0 0.6,0.3 0.6,0.7 L 47.1,41 c 0,0.4 -0.4,0.7 -0.7,0.7 z"
   id="path201"
   style="fill:#ffffff" />

			</g>

		</g>

	</g>

	<g
   id="g220"
   style="fill:#ffffff">
		<g
   id="CXHf1q_3_"
   style="fill:#ffffff">
			<g
   id="g217"
   style="fill:#ffffff">
				<g
   id="g211"
   style="fill:#ffffff">
					<path
   class="st0"
   d="m 128.4,21.4 c -6.3,1.6 -10.6,2.8 -16.8,4.4 -1.5,0.4 -1.6,0.5 -2.9,-1 -1.5,-1.7 -2.6,-2.8 -4.7,-3.8 -6.3,-3.1 -12.4,-2.2 -18.1,1.5 -6.8,4.4 -10.3,10.9 -10.2,19 0.1,8 5.6,14.6 13.5,15.7 6.8,0.9 12.5,-1.5 17,-6.6 0.9,-1.1 1.7,-2.3 2.7,-3.7 -3.6,0 -8.1,0 -19.3,0 -2.1,0 -2.6,-1.3 -1.9,-3 1.3,-3.1 3.7,-8.3 5.1,-10.9 0.3,-0.6 1,-1.6 2.5,-1.6 5.1,0 23.9,0 36.4,0 -0.2,2.7 -0.2,5.4 -0.6,8.1 -1.1,7.2 -3.8,13.8 -8.2,19.6 -7.2,9.5 -16.6,15.4 -28.5,17 C 84.6,77.4 75.5,75.5 67.5,69.5 60.1,63.9 55.9,56.5 54.8,47.3 53.5,36.4 56.7,26.6 63.3,18 70.4,8.7 79.8,2.8 91.3,0.7 c 9.4,-1.7 18.4,-0.6 26.5,4.9 5.3,3.5 9.1,8.3 11.6,14.1 0.6,0.9 0.2,1.4 -1,1.7 z"
   id="path209"
   style="fill:#ffffff" />

				</g>

				<g
   id="g215"
   style="fill:#ffffff">
					<path
   class="st0"
   d="m 161.5,76.7 c -9.1,-0.2 -17.4,-2.8 -24.4,-8.8 -5.9,-5.1 -9.6,-11.6 -10.8,-19.3 -1.8,-11.3 1.3,-21.3 8.1,-30.2 7.3,-9.6 16.1,-14.6 28,-16.7 10.2,-1.8 19.8,-0.8 28.5,5.1 7.9,5.4 12.8,12.7 14.1,22.3 1.7,13.5 -2.2,24.5 -11.5,33.9 -6.6,6.7 -14.7,10.9 -24,12.8 -2.7,0.5 -5.4,0.6 -8,0.9 z M 185.3,36.3 C 185.2,35 185.2,34 185,33 183.2,23.1 174.1,17.5 164.6,19.7 c -9.3,2.1 -15.3,8 -17.5,17.4 -1.8,7.8 2,15.7 9.2,18.9 5.5,2.4 11,2.1 16.3,-0.6 7.9,-4.1 12.2,-10.5 12.7,-19.1 z"
   id="path213"
   style="fill:#ffffff" />

				</g>

			</g>

		</g>

	</g>

</g>
  </g>
  <style
     type="text/css"
     id="style183">
	.st0{fill:#00ACD7;}
</style>
</svg>
