<?xml version="1.0" encoding="UTF-8" standalone="no"?>
<!-- Created with Inkscape (http://www.inkscape.org/) -->

<svg
   width="143.9241mm"
   height="166.18924mm"
   viewBox="0 0 143.9241 166.18924"
   version="1.1"
   id="svg40781"
   inkscape:version="1.1.1 (3bf5ae0d25, 2021-09-20)"
   sodipodi:docname="logo-net.svg"
   xmlns:inkscape="http://www.inkscape.org/namespaces/inkscape"
   xmlns:sodipodi="http://sodipodi.sourceforge.net/DTD/sodipodi-0.dtd"
   xmlns="http://www.w3.org/2000/svg"
   xmlns:svg="http://www.w3.org/2000/svg">
  <sodipodi:namedview
     id="namedview40783"
     pagecolor="#ffffff"
     bordercolor="#666666"
     borderopacity="1.0"
     inkscape:pageshadow="2"
     inkscape:pageopacity="0.0"
     inkscape:pagecheckerboard="0"
     inkscape:document-units="mm"
     showgrid="false"
     inkscape:zoom="0.77771465"
     inkscape:cx="121.50986"
     inkscape:cy="172.94261"
     inkscape:window-width="2560"
     inkscape:window-height="1369"
     inkscape:window-x="-8"
     inkscape:window-y="-8"
     inkscape:window-maximized="1"
     inkscape:current-layer="g40989" />
  <defs
     id="defs40778" />
  <g
     inkscape:label="Layer 1"
     inkscape:groupmode="layer"
     id="layer1"
     transform="translate(-23.255985,-102.79533)">
    <path
       sodipodi:type="star"
       style="fill:#512bd4;fill-opacity:1;stroke-width:0"
       id="path40807"
       inkscape:flatsided="true"
       sodipodi:sides="6"
       sodipodi:cx="354.88596"
       sodipodi:cy="519.47076"
       sodipodi:r1="314.05841"
       sodipodi:r2="271.98257"
       sodipodi:arg1="0.52359878"
       sodipodi:arg2="1.0471976"
       inkscape:rounded="0"
       inkscape:randomized="0"
       d="M 626.86852,676.49997 354.88595,833.52917 82.903393,676.49997 82.903395,362.44156 354.88596,205.41235 626.86852,362.44156 Z"
       transform="matrix(0.26458333,0,0,0.26458333,1.3211289,48.446642)"
       inkscape:transform-center-x="1.1829531e-06"
       inkscape:transform-center-y="-1.7315691e-06" />
    <g
       style="fill:none"
       id="g40989"
       transform="matrix(0.37201686,0,0,0.37201686,-25.899509,61.606183)">
      <g
         id="g43742"
         transform="matrix(0.87840525,0,0,0.87840525,122.51196,131.02313)">
        <path
           d="m 81.2738,291.333 c -3.2242,0 -5.9648,-1.074 -8.2218,-3.223 -2.257,-2.204 -3.3855,-4.821 -3.3855,-7.851 0,-3.086 1.1285,-5.73 3.3855,-7.934 2.257,-2.204 4.9976,-3.306 8.2218,-3.306 3.278,0 6.0455,1.102 8.3025,3.306 2.3107,2.204 3.4661,4.848 3.4661,7.934 0,3.03 -1.1554,5.647 -3.4661,7.851 -2.257,2.149 -5.0245,3.223 -8.3025,3.223 z"
           fill="#ffffff"
           id="path40970" />
        <path
           d="m 210.167,289.515 h -20.958 l -55.215,-87.109 c -1.397,-2.204 -2.553,-4.491 -3.466,-6.86 h -0.484 c 0.43,2.535 0.645,7.962 0.645,16.281 v 77.688 h -18.54 V 171 h 22.328 l 53.362,85.043 c 2.257,3.527 3.708,5.951 4.353,7.273 h 0.322 c -0.537,-3.14 -0.806,-8.457 -0.806,-15.951 V 171 h 18.459 z"
           fill="#ffffff"
           id="path40972" />
        <path
           d="M 300.449,289.515 H 235.561 V 171 h 62.309 v 16.695 h -43.124 v 33.554 h 39.739 v 16.612 h -39.739 v 35.042 h 45.703 z"
           fill="#ffffff"
           id="path40974" />
        <path
           d="m 392.667,187.695 h -33.21 v 101.82 H 340.272 V 187.695 H 307.143 V 171 h 85.524 z"
           fill="#ffffff"
           id="path40976" />
      </g>
    </g>
  </g>
</svg>
